# OBJ written from D:\code\unity\hg\grenade\Grenade\Assets\Grenade\Demo\Models\Platform\Platform2.obj

o Mesh
v -0.5 -0.5 -1.32
v 2.26 -0.5 -1.32
v 2.26 -0.5 0.5
v -0.5 -0.5 0.5
v -0.5 0.5 -1.32
v 0.5 0.5 -1.32
v 0.5 0.5 0.5
v -0.5 0.5 0.5
vn 0 -1 0
vn 0 0 -1
vn 0.255483 0.966813 0
vn 0.494009 0.869457 0
vn 0 0 1
vn -1 0 0
vn 0 1 0
vt 0.00609756 0.00600962
vt 0.493902 0.00600962
vt 0.493902 0.30649
vt 0.00609756 0.30649
vt 0.493902 0.494141
vt 0.317162 0.494141
vt 0.00609756 0.318359
vt 0.493902 0.318359
vt 0.817162 0.19351
vt 0.817162 0.49399
vt 0.506098 0.49399
vt 0.506098 0.19351
vt 0.682838 0.181641
vt 0.506098 0.181641
vt 0.506098 0.00585938
vt 0.993902 0.00585938
vt 0.30649 0.681641
vt 0.00600962 0.681641
vt 0.00600962 0.505859
vt 0.30649 0.505859
vt 0.993902 0.19351
vt 0.993902 0.49399
mtllib Platform2.mtl
usemtl Default
g Default
f 1/1/1 2/2/1 3/3/1 4/4/1
f 5/5/2 6/6/2 2/7/2 1/8/2
f 6/9/3 7/10/3 3/11/4 2/12/4
f 7/13/5 8/14/5 4/15/5 3/16/5
f 8/17/6 5/18/6 1/19/6 4/20/6
f 5/21/7 8/22/7 7/10/3 6/9/3
