# OBJ written from D:\code\unity\hg\grenade\Grenade\Assets\Grenade\Demo\Models\ObjectBox\objectBox.obj

o Mesh
v -0.63936 -1.52801 -0.585703
v 0.670338 -1.53219 -0.551446
v 0.638287 -1.6442 0.615741
v -0.669913 -1.63908 0.582288
v -0.656993 2.16664 -0.563474
v 0.687067 2.15869 -0.528878
v 0.649893 2.0356 0.668101
v -0.689046 2.04996 0.636315
v -0.385416 0.0586408 -0.330067
v 0.404404 0.055893 -0.309391
v 0.384955 -0.011859 0.394341
v -0.403815 -0.00838684 0.374236
vn -0.00118321 -1.08078 -0.0924339
vn 0.0256509 0.00158106 -0.99935
vn 1.11975 -0.00500914 0.0332112
vn -0.0232842 -0.0110144 0.999313
vn -1.11983 -0.00495965 -0.0302387
vn 1.11026 0.138716 0.0416637
vn 0.0245994 0.146956 -0.989464
vn -1.11105 0.137401 -0.0207614
vn -0.0246493 0.131499 0.992642
vn 0.00150901 1.08077 0.0925132
vt 0.830902 0.00333704
vt 0.996684 0.00334772
vt 0.99651 0.203445
vt 0.830919 0.20356
vt 0.627872 0.481889
vt 0.358573 0.480677
vt 0.361247 -0.204647
vt 0.623663 -0.204132
vt 0.632047 0.481889
vt 0.376518 0.46638
vt 0.362747 -0.204647
vt 0.611839 -0.190985
vt 0.623698 0.479467
vt 0.354399 0.481889
vt 0.358757 -0.203951
vt 0.621885 -0.204647
vt 0.602742 0.467576
vt 0.346747 0.481889
vt 0.366856 -0.191172
vt 0.616046 -0.204647
vt 0.295688 0.978426
vt 0.0924621 0.967138
vt 0.126921 0.670274
vt 0.24621 0.67669
vt 0.925688 0.978426
vt 0.722462 0.976486
vt 0.763403 0.670274
vt 0.883128 0.670667
vt 0.505688 0.966181
vt 0.302462 0.978426
vt 0.352117 0.676809
vt 0.471562 0.670274
vt 0.715688 0.97747
vt 0.512462 0.978426
vt 0.554763 0.670552
vt 0.674187 0.670274
vt 0.962233 0.210181
vt 0.962215 0.341544
vt 0.831029 0.341458
vt 0.83087 0.210192
mtllib objectBox.mtl
usemtl Default
g Default
f 1/1/1 2/2/1 3/3/1 4/4/1
f 5/5/2 6/6/2 2/7/2 1/8/2
f 6/9/3 7/10/3 3/11/3 2/12/3
f 7/13/4 8/14/4 4/15/4 3/16/4
f 8/17/5 5/18/5 1/19/5 4/20/5
f 5/21/6 8/22/6 12/23/6 9/24/6
f 8/25/7 7/26/7 11/27/7 12/28/7
f 7/29/8 6/30/8 10/31/8 11/32/8
f 6/33/9 5/34/9 9/35/9 10/36/9
f 9/37/10 12/38/10 11/39/10 10/40/10
