# OBJ written from D:\code\unity\hg\grenade\Grenade\Assets\Grenade\Demo\Models\UsePanel\usePanel.obj

o Mesh
v -0.265 -0.9425 -0.0675
v 0.265 -0.9425 -0.0675
v 0.265 -0.9425 0.0675
v -0.265 -0.9425 0.0675
v -0.265 0.9425 -0.0675
v 0.265 0.9425 -0.0675
v 0.265 0.9425 0.0675
v -0.265 0.9425 0.0675
v 0.2 0.85709 -0.0626962
v -0.2 0.85709 -0.0626962
v -0.2 0.48691 -0.0626962
v 0.2 0.48691 -0.0626962
v -0.2 0.85709 -0.117304
v 0.2 0.85709 -0.117304
v 0.2 0.48691 -0.117304
v -0.2 0.48691 -0.117304
vn 0 -1.885 0
vn 0 0 -0.135
vn 0.53 0 4.02331e-009
vn 0 0 0.135
vn -0.53 0 4.02331e-009
vn 0 1.885 0
vn -0.53 0 0
vn 0.53 0 0
vt 0.1666 0.00739882
vt 0.4466 0.00739882
vt 0.4466 0.0398988
vt 0.1666 0.0398988
vt 0.4466 0.0400678
vt 0.1666 0.0400678
vt 0.1666 0.00756784
vt 0.4466 0.00756784
vt 0.448056 0.0400678
vt 0.168056 0.0400678
vt 0.168056 0.00756782
vt 0.448056 0.00756782
vt 0.450585 0.0478111
vt 0.132748 0.0478111
vt 0.132748 0.00593888
vt 0.450585 0.00593888
vt 0.445144 0.0400678
vt 0.165144 0.0400678
vt 0.165144 0.00756782
vt 0.445144 0.00756782
vt 0.445144 0.00739882
vt 0.445144 0.0398988
vt 0.165144 0.0398988
vt 0.165144 0.00739882
vt 0.970244 0.944922
vt 0.970244 0.980078
vt 0.872683 0.980078
vt 0.872683 0.944922
vt 0.501829 0.978238
vt 0.0631707 0.983238
vt 0.0631707 0.950185
vt 0.501829 0.945185
vt 0.688972 0.969826
vt 0.538543 0.97124
vt 0.538461 0.945677
vt 0.68889 0.944263
vt 0.439705 0.977817
vt 0.278954 0.976049
vt 0.279268 0.954124
vt 0.44002 0.955892
vt 1.01241 -0.0696199
vt 0.0181926 -0.0746199
vt -0.0118074 -0.96298
vt 0.987407 -0.96298
mtllib usePanel.mtl
usemtl Default
g Default
f 1/1/1 2/2/1 3/3/1 4/4/1
f 5/5/2 6/6/2 2/7/2 1/8/2
f 6/9/3 7/10/3 3/11/3 2/12/3
f 7/13/4 8/14/4 4/15/4 3/16/4
f 8/17/5 5/18/5 1/19/5 4/20/5
f 5/21/6 8/22/6 7/23/6 6/24/6
f 11/25/7 10/26/7 13/27/7 16/28/7
f 10/29/6 9/30/6 14/31/6 13/32/6
f 9/33/8 12/34/8 15/35/8 14/36/8
f 12/37/1 11/38/1 16/39/1 15/40/1
f 13/41/2 14/42/2 15/43/2 16/44/2
